<mxfile host="app.diagrams.net" modified="2023-04-11T16:35:50.379Z" agent="Mozilla/5.0 (Windows NT 10.0; Win64; x64) AppleWebKit/537.36 (KHTML, like Gecko) Chrome/111.0.0.0 Safari/537.36" etag="p82ebm44N7Xqmc_mTJH8" version="21.1.5" type="device">
  <diagram id="H-V0Cn4vGUxnEMWcjWYn" name="Page-1">
    <mxGraphModel dx="700" dy="322" grid="1" gridSize="10" guides="1" tooltips="1" connect="1" arrows="1" fold="1" page="1" pageScale="1" pageWidth="827" pageHeight="1169" math="0" shadow="0">
      <root>
        <mxCell id="0" />
        <mxCell id="1" parent="0" />
        <mxCell id="lje-08sY9-DnI3WqOCEh-1" value="" style="endArrow=none;html=1;" parent="1" edge="1">
          <mxGeometry width="50" height="50" relative="1" as="geometry">
            <mxPoint x="160" y="160" as="sourcePoint" />
            <mxPoint x="680" y="160" as="targetPoint" />
          </mxGeometry>
        </mxCell>
        <mxCell id="lje-08sY9-DnI3WqOCEh-2" value="" style="endArrow=none;html=1;" parent="1" edge="1">
          <mxGeometry width="50" height="50" relative="1" as="geometry">
            <mxPoint x="160" y="160" as="sourcePoint" />
            <mxPoint x="160" y="80" as="targetPoint" />
          </mxGeometry>
        </mxCell>
        <mxCell id="lje-08sY9-DnI3WqOCEh-3" value="" style="endArrow=none;html=1;" parent="1" edge="1">
          <mxGeometry width="50" height="50" relative="1" as="geometry">
            <mxPoint x="680.0000000000001" y="160" as="sourcePoint" />
            <mxPoint x="680.0000000000001" y="80" as="targetPoint" />
          </mxGeometry>
        </mxCell>
        <mxCell id="lje-08sY9-DnI3WqOCEh-4" value="" style="endArrow=classic;startArrow=classic;html=1;" parent="1" edge="1">
          <mxGeometry width="50" height="50" relative="1" as="geometry">
            <mxPoint x="160" y="120" as="sourcePoint" />
            <mxPoint x="680" y="120" as="targetPoint" />
          </mxGeometry>
        </mxCell>
        <mxCell id="lje-08sY9-DnI3WqOCEh-5" value="" style="endArrow=classic;startArrow=classic;html=1;strokeColor=#00FF00;" parent="1" edge="1">
          <mxGeometry width="50" height="50" relative="1" as="geometry">
            <mxPoint x="160" y="80" as="sourcePoint" />
            <mxPoint x="260" y="80" as="targetPoint" />
          </mxGeometry>
        </mxCell>
        <mxCell id="lje-08sY9-DnI3WqOCEh-8" value="30 Seconds&amp;nbsp;" style="text;html=1;strokeColor=none;fillColor=none;align=center;verticalAlign=middle;whiteSpace=wrap;rounded=0;" parent="1" vertex="1">
          <mxGeometry x="344" y="130" width="140" height="20" as="geometry" />
        </mxCell>
        <mxCell id="lje-08sY9-DnI3WqOCEh-9" value="" style="endArrow=classic;startArrow=classic;html=1;fillColor=#e51400;strokeColor=#FF0000;" parent="1" edge="1">
          <mxGeometry width="50" height="50" relative="1" as="geometry">
            <mxPoint x="260" y="80" as="sourcePoint" />
            <mxPoint x="680" y="80" as="targetPoint" />
          </mxGeometry>
        </mxCell>
        <mxCell id="lje-08sY9-DnI3WqOCEh-11" value="Off 20 seconds" style="text;html=1;strokeColor=none;fillColor=none;align=center;verticalAlign=middle;whiteSpace=wrap;rounded=0;" parent="1" vertex="1">
          <mxGeometry x="430" y="50" width="110" height="20" as="geometry" />
        </mxCell>
        <mxCell id="lje-08sY9-DnI3WqOCEh-21" value="" style="endArrow=none;html=1;" parent="1" edge="1">
          <mxGeometry width="50" height="50" relative="1" as="geometry">
            <mxPoint x="160.0000000000001" y="320" as="sourcePoint" />
            <mxPoint x="680" y="320" as="targetPoint" />
          </mxGeometry>
        </mxCell>
        <mxCell id="lje-08sY9-DnI3WqOCEh-22" value="" style="endArrow=none;html=1;" parent="1" edge="1">
          <mxGeometry width="50" height="50" relative="1" as="geometry">
            <mxPoint x="160.0000000000001" y="320" as="sourcePoint" />
            <mxPoint x="160.0000000000001" y="240" as="targetPoint" />
          </mxGeometry>
        </mxCell>
        <mxCell id="lje-08sY9-DnI3WqOCEh-23" value="" style="endArrow=none;html=1;" parent="1" edge="1">
          <mxGeometry width="50" height="50" relative="1" as="geometry">
            <mxPoint x="680" y="320" as="sourcePoint" />
            <mxPoint x="680" y="240" as="targetPoint" />
          </mxGeometry>
        </mxCell>
        <mxCell id="lje-08sY9-DnI3WqOCEh-24" value="" style="endArrow=classic;startArrow=classic;html=1;" parent="1" edge="1">
          <mxGeometry width="50" height="50" relative="1" as="geometry">
            <mxPoint x="160.0000000000001" y="280" as="sourcePoint" />
            <mxPoint x="680" y="280" as="targetPoint" />
          </mxGeometry>
        </mxCell>
        <mxCell id="lje-08sY9-DnI3WqOCEh-25" value="" style="endArrow=classic;startArrow=classic;html=1;strokeColor=#00FF00;" parent="1" edge="1">
          <mxGeometry width="50" height="50" relative="1" as="geometry">
            <mxPoint x="160.0000000000001" y="240" as="sourcePoint" />
            <mxPoint x="420" y="240" as="targetPoint" />
          </mxGeometry>
        </mxCell>
        <mxCell id="lje-08sY9-DnI3WqOCEh-26" value="30 Seconds" style="text;html=1;strokeColor=none;fillColor=none;align=center;verticalAlign=middle;whiteSpace=wrap;rounded=0;" parent="1" vertex="1">
          <mxGeometry x="344" y="290" width="140" height="20" as="geometry" />
        </mxCell>
        <mxCell id="lje-08sY9-DnI3WqOCEh-27" value="" style="endArrow=classic;startArrow=classic;html=1;fillColor=#e51400;strokeColor=#FF0000;" parent="1" edge="1">
          <mxGeometry width="50" height="50" relative="1" as="geometry">
            <mxPoint x="420" y="240" as="sourcePoint" />
            <mxPoint x="680" y="240" as="targetPoint" />
          </mxGeometry>
        </mxCell>
        <mxCell id="lje-08sY9-DnI3WqOCEh-28" value="On&amp;nbsp; 15 seconds" style="text;html=1;strokeColor=none;fillColor=none;align=center;verticalAlign=middle;whiteSpace=wrap;rounded=0;" parent="1" vertex="1">
          <mxGeometry x="220" y="210" width="110" height="20" as="geometry" />
        </mxCell>
        <mxCell id="lje-08sY9-DnI3WqOCEh-29" value="Off 15 seconds" style="text;html=1;strokeColor=none;fillColor=none;align=center;verticalAlign=middle;whiteSpace=wrap;rounded=0;" parent="1" vertex="1">
          <mxGeometry x="490" y="210" width="110" height="20" as="geometry" />
        </mxCell>
        <mxCell id="lje-08sY9-DnI3WqOCEh-30" value="On 10 seconds" style="text;html=1;strokeColor=none;fillColor=none;align=center;verticalAlign=middle;whiteSpace=wrap;rounded=0;" parent="1" vertex="1">
          <mxGeometry x="170" y="50" width="90" height="20" as="geometry" />
        </mxCell>
        <mxCell id="lje-08sY9-DnI3WqOCEh-31" value="" style="endArrow=none;html=1;" parent="1" edge="1">
          <mxGeometry width="50" height="50" relative="1" as="geometry">
            <mxPoint x="160.0000000000001" y="480" as="sourcePoint" />
            <mxPoint x="680" y="480" as="targetPoint" />
          </mxGeometry>
        </mxCell>
        <mxCell id="lje-08sY9-DnI3WqOCEh-32" value="" style="endArrow=none;html=1;" parent="1" edge="1">
          <mxGeometry width="50" height="50" relative="1" as="geometry">
            <mxPoint x="160.0000000000001" y="480" as="sourcePoint" />
            <mxPoint x="160.0000000000001" y="400" as="targetPoint" />
          </mxGeometry>
        </mxCell>
        <mxCell id="lje-08sY9-DnI3WqOCEh-33" value="" style="endArrow=none;html=1;" parent="1" edge="1">
          <mxGeometry width="50" height="50" relative="1" as="geometry">
            <mxPoint x="680" y="480" as="sourcePoint" />
            <mxPoint x="680" y="400" as="targetPoint" />
          </mxGeometry>
        </mxCell>
        <mxCell id="lje-08sY9-DnI3WqOCEh-34" value="" style="endArrow=classic;startArrow=classic;html=1;" parent="1" edge="1">
          <mxGeometry width="50" height="50" relative="1" as="geometry">
            <mxPoint x="160.0000000000001" y="440" as="sourcePoint" />
            <mxPoint x="680" y="440" as="targetPoint" />
          </mxGeometry>
        </mxCell>
        <mxCell id="lje-08sY9-DnI3WqOCEh-35" value="" style="endArrow=classic;startArrow=classic;html=1;strokeColor=#00FF00;" parent="1" edge="1">
          <mxGeometry width="50" height="50" relative="1" as="geometry">
            <mxPoint x="160.0000000000001" y="400" as="sourcePoint" />
            <mxPoint x="580" y="400" as="targetPoint" />
          </mxGeometry>
        </mxCell>
        <mxCell id="lje-08sY9-DnI3WqOCEh-36" value="30 Seconds" style="text;html=1;strokeColor=none;fillColor=none;align=center;verticalAlign=middle;whiteSpace=wrap;rounded=0;" parent="1" vertex="1">
          <mxGeometry x="344" y="450" width="140" height="20" as="geometry" />
        </mxCell>
        <mxCell id="lje-08sY9-DnI3WqOCEh-37" value="" style="endArrow=classic;startArrow=classic;html=1;fillColor=#e51400;strokeColor=#FF0000;" parent="1" edge="1">
          <mxGeometry width="50" height="50" relative="1" as="geometry">
            <mxPoint x="580" y="400" as="sourcePoint" />
            <mxPoint x="680" y="400" as="targetPoint" />
          </mxGeometry>
        </mxCell>
        <mxCell id="lje-08sY9-DnI3WqOCEh-38" value="On&amp;nbsp; 20 seconds" style="text;html=1;strokeColor=none;fillColor=none;align=center;verticalAlign=middle;whiteSpace=wrap;rounded=0;" parent="1" vertex="1">
          <mxGeometry x="200" y="370" width="110" height="20" as="geometry" />
        </mxCell>
        <mxCell id="lje-08sY9-DnI3WqOCEh-39" value="Off 10 seconds" style="text;html=1;strokeColor=none;fillColor=none;align=center;verticalAlign=middle;whiteSpace=wrap;rounded=0;" parent="1" vertex="1">
          <mxGeometry x="580" y="370" width="110" height="20" as="geometry" />
        </mxCell>
        <mxCell id="lje-08sY9-DnI3WqOCEh-40" value="Close to set point, able to maintain the level of nitrogen" style="text;html=1;strokeColor=none;fillColor=none;align=center;verticalAlign=middle;whiteSpace=wrap;rounded=0;fontStyle=1;fontSize=14;" parent="1" vertex="1">
          <mxGeometry x="150" y="90" width="540" height="20" as="geometry" />
        </mxCell>
        <mxCell id="lje-08sY9-DnI3WqOCEh-41" value="Half way to setpoint but still pushing to get there" style="text;html=1;strokeColor=none;fillColor=none;align=center;verticalAlign=middle;whiteSpace=wrap;rounded=0;fontStyle=1;fontSize=14;" parent="1" vertex="1">
          <mxGeometry x="250" y="250" width="340" height="20" as="geometry" />
        </mxCell>
        <mxCell id="lje-08sY9-DnI3WqOCEh-42" value="Far away from setpoint pushing really hard to get there" style="text;html=1;strokeColor=none;fillColor=none;align=center;verticalAlign=middle;whiteSpace=wrap;rounded=0;fontStyle=1;fontSize=14;" parent="1" vertex="1">
          <mxGeometry x="190" y="410" width="460" height="20" as="geometry" />
        </mxCell>
      </root>
    </mxGraphModel>
  </diagram>
</mxfile>
